<mxfile host="app.diagrams.net" modified="2024-05-20T13:26:28.303Z" agent="Mozilla/5.0 (X11; CrOS x86_64 14816.131.0) AppleWebKit/537.36 (KHTML, like Gecko) Chrome/103.0.0.0 Safari/537.36" version="24.4.4" etag="V9syLZs_otlhEsoUIYgM" type="github">
  <diagram name="PÃ¡gina-1" id="9raZai2WkExbvvnOwCag">
    <mxGraphModel>
      <root>
        <mxCell id="0" />
        <mxCell id="1" parent="0" />
      </root>
    </mxGraphModel>
  </diagram>
</mxfile>
